<svg width="256" height="256" viewBox="0 0 256 256" fill="none" xmlns="http://www.w3.org/2000/svg">
    <defs>
        <linearGradient id="portalShield" x1="44" y1="20" x2="204" y2="236" gradientUnits="userSpaceOnUse">
            <stop offset="0" stop-color="#93BA61" />
            <stop offset="0.5" stop-color="#486134" />
            <stop offset="1" stop-color="#162114" />
        </linearGradient>
        <linearGradient id="portalGold" x1="72" y1="44" x2="178" y2="214" gradientUnits="userSpaceOnUse">
            <stop offset="0" stop-color="#FFF3B5" />
            <stop offset="0.42" stop-color="#F1D36B" />
            <stop offset="1" stop-color="#B88416" />
        </linearGradient>
        <filter id="portalGlow" x="-24" y="-24" width="304" height="304" filterUnits="userSpaceOnUse" color-interpolation-filters="sRGB">
            <feGaussianBlur stdDeviation="12" result="blur" />
            <feColorMatrix in="blur" type="matrix" values="1 0 0 0 0.55 0 1 0 0 0.72 0 0 1 0 0.34 0 0 0 0.42 0" result="glow" />
            <feBlend in="SourceGraphic" in2="glow" mode="screen" />
        </filter>
    </defs>
    <g filter="url(#portalGlow)">
        <path d="M128 16L210 49V112C210 165 179 211 128 242C77 211 46 165 46 112V49L128 16Z" fill="url(#portalShield)" />
        <path d="M128 31L194 58V112C194 154 170 192 128 220C86 192 62 154 62 112V58L128 31Z" stroke="url(#portalGold)" stroke-width="5" />
        <path d="M82 72H174" stroke="url(#portalGold)" stroke-width="8" stroke-linecap="round" opacity="0.9" />
        <path d="M92 178C104 188 116 193 128 193C140 193 152 188 164 178" stroke="url(#portalGold)" stroke-width="7" stroke-linecap="round" opacity="0.9" />
        <circle cx="128" cy="123" r="18" fill="#0F160E" stroke="url(#portalGold)" stroke-width="6" />
        <text x="128" y="152" text-anchor="middle" font-family="Georgia, serif" font-size="92" font-weight="700" fill="url(#portalGold)">PK</text>
    </g>
</svg>
